HIERARCHY
ROOT Hips
{
	OFFSET -32.860001 56.121803 44.745396
	CHANNELS 6 Xposition Yposition Zposition Zrotation Xrotation Yrotation
	JOINT Chest
	{
		OFFSET -0.637402 0.831600 5.390099
		CHANNELS 6 Xposition Yposition Zposition Zrotation Xrotation Yrotation
		JOINT Chest2
		{
			OFFSET 0.000000 0.000000 4.429901
			CHANNELS 6 Xposition Yposition Zposition Zrotation Xrotation Yrotation
			JOINT Neck
			{
				OFFSET 0.000000 0.000000 10.301395
				CHANNELS 6 Xposition Yposition Zposition Zrotation Xrotation Yrotation
				JOINT Head
				{
					OFFSET 0.000000 0.000000 2.173897
					CHANNELS 6 Xposition Yposition Zposition Zrotation Xrotation Yrotation
					End Site
					{
						OFFSET 0.000000 0.000000 8.298004
					}
				}
			}
			JOINT LeftCollar
			{
				OFFSET 2.142401 -0.572701 5.717800
				CHANNELS 6 Xposition Yposition Zposition Zrotation Xrotation Yrotation
				JOINT LeftShoulder
				{
					OFFSET 5.674000 0.000000 0.000000
					CHANNELS 6 Xposition Yposition Zposition Zrotation Xrotation Yrotation
					JOINT LeftElbow
					{
						OFFSET 0.000000 0.000000 -12.238701
						CHANNELS 6 Xposition Yposition Zposition Zrotation Xrotation Yrotation
						JOINT LeftWrist
						{
							OFFSET 0.000000 0.000000 -10.253700
							CHANNELS 6 Xposition Yposition Zposition Zrotation Xrotation Yrotation
							End Site
							{
								OFFSET 0.000000 0.000000 -2.173901
							}
						}
					}
				}
			}
			JOINT RightCollar
			{
				OFFSET -2.882599 -1.580101 6.695801
				CHANNELS 6 Xposition Yposition Zposition Zrotation Xrotation Yrotation
				JOINT RightShoulder
				{
					OFFSET -4.235600 0.000000 0.000000
					CHANNELS 6 Xposition Yposition Zposition Zrotation Xrotation Yrotation
					JOINT RightElbow
					{
						OFFSET 0.000000 0.000000 -10.709900
						CHANNELS 6 Xposition Yposition Zposition Zrotation Xrotation Yrotation
						JOINT RightWrist
						{
							OFFSET 0.000000 0.000000 -11.716801
							CHANNELS 6 Xposition Yposition Zposition Zrotation Xrotation Yrotation
							End Site
							{
								OFFSET 0.000000 0.000000 -2.173901
							}
						}
					}
				}
			}
		}
	}
	JOINT LeftHip
	{
		OFFSET 2.279499 0.210400 -2.475502
		CHANNELS 6 Xposition Yposition Zposition Zrotation Xrotation Yrotation
		JOINT LeftKnee
		{
			OFFSET 0.000000 -0.000004 -20.742800
			CHANNELS 6 Xposition Yposition Zposition Zrotation Xrotation Yrotation
			JOINT LeftAnkle
			{
				OFFSET 0.000000 0.000000 -16.666000
				CHANNELS 6 Xposition Yposition Zposition Zrotation Xrotation Yrotation
				End Site
				{
					OFFSET 0.000000 -8.310898 0.000000
				}
			}
		}
	}
	JOINT RightHip
	{
		OFFSET -1.961899 0.232300 -2.727402
		CHANNELS 6 Xposition Yposition Zposition Zrotation Xrotation Yrotation
		JOINT RightKnee
		{
			OFFSET 0.000000 -0.000004 -20.526800
			CHANNELS 6 Xposition Yposition Zposition Zrotation Xrotation Yrotation
			JOINT RightAnkle
			{
				OFFSET 0.000000 0.000000 -16.867300
				CHANNELS 6 Xposition Yposition Zposition Zrotation Xrotation Yrotation
				End Site
				{
					OFFSET 0.000000 -7.186401 0.000000
				}
			}
		}
	}
}
MOTION
Frames: 6
Frame Time: 0.041667
56.153099 86.054611 44.575493 1620.344683 -1.167421 -0.315419 -0.637404 0.831598 5.390095 -0.565332 10.149151 2.399052 -0.000003 -0.000011 4.429901 3.157667 -0.323741 0.464029 0.000000 -0.000006 10.301394 376.231845 25.858133 -5.989838 -0.000005 0.000000 2.173906 -360.734692 7.556593 1.287246 2.142395 -0.572699 5.717804 2.701445 -2.432788 -11.007047 5.674001 0.000019 0.000009 323.327550 -722.773623 -75.280965 0.000001 0.000010 -12.238699 -899.897968 211.693094 -173.337579 0.000008 -0.000004 -10.253690 -252.047531 17.317757 -3.823915 -2.882602 -1.580105 6.695806 0.045346 -6.923604 8.844543 -4.235602 -0.000000 0.000000 -1044.944303 -16.481021 -644.535227 0.000000 -0.000000 -10.709887 150.182896 -145.582969 136.693027 0.000001 0.000014 -11.716799 -994.646571 -5.469593 -16.263229 2.279500 0.210397 -2.475504 378.393928 -15.939339 6.059675 0.000007 -0.000004 -20.742796 -375.710456 30.242978 -2.473928 -0.000003 0.000003 -16.666002 338.606000 28.565016 12.915854 -1.961893 0.232294 -2.727407 -1071.262606 13.335653 15.046625 -0.000005 0.000002 -20.526802 888.025132 147.186656 -188.141044 0.000002 -0.000004 -16.867298 11.444901 67.995230 -27.485446
56.172508 86.014801 44.595993 1619.688766 -0.775289 -0.167093 -0.637396 0.831601 5.390100 0.124868 9.797299 2.168020 0.000002 -0.000007 4.429898 3.166597 -0.285096 0.469759 -0.000005 -0.000006 10.301399 375.883697 25.919478 -5.819232 -0.000005 0.000006 2.173898 -360.640381 7.512709 1.223104 2.142399 -0.572703 5.717805 2.703130 -2.383415 -10.820345 5.673994 0.000027 -0.000005 324.332298 -721.958099 -75.193286 -0.000005 0.000009 -12.238698 -899.311009 212.341388 -173.361184 0.000003 -0.000001 -10.253696 -251.929397 16.943927 -3.527456 -2.882603 -1.580109 6.695800 -0.414656 -7.172223 9.564618 -4.235607 0.000004 -0.000001 -1045.742943 -17.099063 -645.315617 0.000000 0.000007 -10.709896 149.870743 -147.020232 135.942266 0.000007 0.000007 -11.716808 -993.176059 -5.317415 -16.265909 2.279504 0.210403 -2.475498 379.332478 -16.362616 6.165630 0.000002 -0.000012 -20.742800 -375.987707 30.154534 -2.719018 -0.000000 0.000011 -16.665998 338.210805 28.613551 13.709298 -1.961888 0.232304 -2.727397 -1068.605062 14.540225 14.465835 -0.000004 -0.000007 -20.526810 885.173556 149.058852 -188.623775 -0.000008 -0.000000 -16.867313 10.270153 68.026574 -27.225274
56.202690 85.976799 44.616589 1619.157541 -0.269841 0.021419 -0.637406 0.831601 5.390098 0.688377 9.328968 1.972590 0.000006 -0.000012 4.429901 3.040166 -0.254066 0.452506 0.000003 -0.000002 10.301407 375.854600 25.974977 -5.823686 -0.000001 -0.000001 2.173890 -360.637157 7.541062 1.358736 2.142397 -0.572698 5.717802 2.607400 -2.364417 -10.730872 5.673998 0.000005 0.000004 325.409227 -721.413050 -75.102417 0.000008 0.000012 -12.238701 -898.985455 212.904674 -173.249852 0.000010 0.000002 -10.253707 -252.061028 16.507087 -3.484946 -2.882601 -1.580099 6.695805 -0.216941 -7.215123 9.517210 -4.235607 -0.000004 0.000004 -1046.390445 -16.379002 -645.392662 -0.000002 0.000000 -10.709900 148.931906 -148.416637 135.839212 -0.000010 0.000007 -11.716802 -991.967170 -5.263197 -16.095175 2.279501 0.210407 -2.475500 379.899766 -16.922443 6.292777 -0.000002 -0.000003 -20.742800 -372.120427 29.702485 -4.781622 0.000000 0.000010 -16.665993 334.619765 28.827592 14.185774 -1.961887 0.232306 -2.727407 -1066.629989 15.294460 13.870301 -0.000001 -0.000001 -20.526806 882.670046 150.714353 -188.772263 0.000004 0.000004 -16.867292 9.490794 68.132325 -26.649800
56.225288 85.935997 44.643997 1618.816578 -0.391075 0.033618 -0.637405 0.831589 5.390107 1.033710 9.536702 1.916641 -0.000004 -0.000000 4.429901 2.895768 -0.234787 0.441821 0.000005 0.000002 10.301389 375.784140 25.988366 -5.778364 -0.000013 -0.000001 2.173909 -360.598936 7.588621 1.457351 2.142404 -0.572704 5.717801 2.558933 -2.318101 -10.642570 5.673996 0.000012 0.000002 326.280486 -721.161480 -75.045925 0.000010 0.000011 -12.238697 -898.808198 213.225815 -173.104915 0.000002 0.000008 -10.253692 -252.332268 16.078168 -3.286547 -2.882595 -1.580104 6.695794 -0.069991 -7.375311 8.838704 -4.235601 0.000003 -0.000002 -1046.914020 -14.759161 -644.889905 -0.000004 0.000018 -10.709909 146.615789 -150.144306 135.036214 0.000002 0.000008 -11.716794 -989.887405 -5.279446 -15.893871 2.279500 0.210396 -2.475494 380.117185 -16.856876 6.236843 -0.000008 -0.000004 -20.742798 -371.847137 29.669444 -4.991951 -0.000001 0.000009 -16.665995 334.400270 28.786611 14.359619 -1.961896 0.232287 -2.727395 -1065.026370 16.479139 13.306410 0.000009 0.000007 -20.526800 881.263956 152.139773 -189.148702 -0.000003 0.000006 -16.867300 8.906924 68.012770 -26.870408
56.250809 85.897301 44.668591 1618.373763 -0.505784 0.488410 -0.637408 0.831586 5.390098 1.558045 9.779106 1.396534 -0.000003 0.000004 4.429904 2.751171 -0.246316 0.424508 -0.000005 -0.000015 10.301385 375.917301 25.973189 -5.734140 -0.000005 -0.000006 2.173889 -360.655517 7.590204 1.550492 2.142393 -0.572723 5.717798 2.417942 -2.256117 -10.614418 5.673990 0.000017 0.000003 327.225648 -721.133668 -74.912415 0.000001 0.000009 -12.238697 -898.850600 213.653945 -172.994280 -0.000002 0.000003 -10.253714 -252.839997 16.172898 -2.711242 -2.882609 -1.580112 6.695791 -1.164171 -4.935139 8.606786 -4.235620 -0.000015 0.000004 -1046.332744 -15.295223 -643.355407 -0.000002 0.000027 -10.709902 140.840181 -154.408352 132.868927 -0.000005 0.000006 -11.716810 -984.091142 -5.445482 -15.539852 2.279498 0.210386 -2.475496 380.259635 -16.949231 5.610330 -0.000006 -0.000009 -20.742794 -371.667312 29.577021 -4.895022 -0.000003 0.000000 -16.665991 334.284320 28.843479 14.402921 -1.961898 0.232287 -2.727400 -1063.854310 17.153313 12.517931 -0.000008 -0.000003 -20.526796 880.385047 153.173331 -189.320946 0.000007 0.000004 -16.867306 8.867053 67.898398 -27.057139
56.272598 85.862099 44.689388 1618.059575 -0.604887 0.670767 -0.637402 0.831601 5.390099 1.941500 10.039214 1.128554 -0.000002 0.000008 4.429899 2.472411 -0.291939 0.390352 -0.000000 -0.000001 10.301402 375.975167 26.041652 -5.528019 -0.000005 -0.000006 2.173889 -360.601886 7.565102 1.547184 2.142394 -0.572708 5.717809 2.472580 -2.448881 -10.472693 5.673992 0.000009 -0.000004 327.860719 -720.864339 -74.753320 0.000002 -0.000010 -12.238693 -898.857430 214.006124 -172.809619 0.000010 0.000007 -10.253686 -253.083261 16.158867 -1.982190 -2.882598 -1.580106 6.695800 -0.988070 -4.571614 8.701065 -4.235609 -0.000008 0.000011 -1047.007020 -13.636034 -643.336501 0.000002 -0.000009 -10.709904 138.789526 -154.367767 132.608410 -0.000014 0.000003 -11.716793 -983.884051 -5.474129 -15.202205 2.279499 0.210400 -2.475496 380.561530 -16.972834 5.323506 0.000004 -0.000020 -20.742796 -371.324409 29.468199 -4.939437 -0.000005 0.000010 -16.665997 333.790252 28.956515 14.522377 -1.961891 0.232303 -2.727405 -1063.238500 17.626618 12.065772 0.000002 -0.000008 -20.526802 880.056870 153.898669 -189.339401 0.000004 -0.000004 -16.867302 9.113063 67.674928 -27.251251
